<svg id="Layer_1" data-name="Layer 1" xmlns="http://www.w3.org/2000/svg" xmlns:xlink="http://www.w3.org/1999/xlink" viewBox="0 0 1511.91 490"><defs><style>.cls-1{fill:#282a36;}.cls-2{fill:url(#linear-gradient);}.cls-3{fill:#6398ab;}.cls-4{fill:#c7eae4;}.cls-5{opacity:0.53;}.cls-21,.cls-23,.cls-27,.cls-6{fill:none;}.cls-24,.cls-25,.cls-27,.cls-6{stroke:#41395b;}.cls-13,.cls-23,.cls-24,.cls-25,.cls-27,.cls-6,.cls-7{stroke-miterlimit:10;}.cls-6{stroke-width:7px;}.cls-7{fill:#c6c6c6;stroke:#fff;}.cls-8{fill:#41395b;}.cls-9{fill:#d39cb3;}.cls-10{fill:#873d53;}.cls-11{fill:#ae9a3e;}.cls-12{fill:#302e3a;}.cls-13{stroke:#000;stroke-width:2px;}.cls-14{fill:#b2a039;}.cls-15{fill:#aa9740;}.cls-16{fill:#e1bbc9;}.cls-17{fill:#373359;}.cls-18{fill:#b1a039;}.cls-19{fill:#fcfcfc;}.cls-20{fill:url(#linear-gradient-2);}.cls-22{fill:#e8c723;}.cls-23{stroke:#0f9b00;}.cls-23,.cls-25,.cls-27{stroke-width:0.75px;}.cls-24{fill:#c1bcbc;stroke-width:0.25px;}.cls-25{fill:#efeded;}.cls-26{fill:#fff;opacity:0.5;}</style><linearGradient id="linear-gradient" x1="1088.4" y1="749.22" x2="1089.76" y2="136.05" gradientUnits="userSpaceOnUse"><stop offset="0.06" stop-color="#41395b"/><stop offset="0.35" stop-color="#3c3654"/><stop offset="0.77" stop-color="#2f2e41"/><stop offset="0.95" stop-color="#282a36"/></linearGradient><linearGradient id="linear-gradient-2" x1="453" y1="55" x2="453" y2="55" xlink:href="#linear-gradient"/></defs><title>bg_main2</title><rect class="cls-1" x="789" y="122" width="594.72" height="298" rx="12"/><rect class="cls-2" x="786" y="46" width="606.93" height="444"/><path class="cls-3" d="M214.7,202.51l78.46,10.06S279,187.78,255.2,185,214.7,202.51,214.7,202.51Z" transform="translate(795 52)"/><path class="cls-4" d="M113.1,81.09l33.79,76a2.84,2.84,0,0,0,2.88,1.69c19-1.85,167.46-15.25,300.44,3.83a2.83,2.83,0,0,0,3.16-2.09l21.68-82.95a2.83,2.83,0,0,0-1.88-3.44c-20.41-6.56-161.26-47.43-358.17,3A2.87,2.87,0,0,0,113.1,81.09Z" transform="translate(795 52)"/><image class="cls-5" width="1113" height="758" transform="scale(0.6)" xlink:href="C:%5CUsers%5Ctrisc%5COneDrive%5CDesktop%5Cmockup%20licenta%5CWelcomePageImage%5Cidee_main_page.PNG"/><ellipse class="cls-6" cx="1039.15" cy="279.35" rx="43.35" ry="37.25"/><polygon class="cls-7" points="1162.5 308.25 1118.83 328.8 1093.23 269.24 1140.66 259.44 1162.5 308.25"/><path d="M379.34,108.53s20.56-15.41,62.94,1.29c0,0-1.28,6.42-5.13,6.42,0,0-2.68-6.18,0-5.14,2,.78-26.29-6.48-57.81-2.57" transform="translate(795 52)"/><path class="cls-8" d="M211.05,204.87c-.63,1.27,51.7-2.24,77.55,34.47,1.54-6.36-50.93-3.2-56.62,24.62l-11.08-3.7s19.08-28.92-10.46-54.77" transform="translate(795 52)"/><path class="cls-9" d="M208,181c1.37,1,2.86,2.62,1.79,4.37a4.89,4.89,0,0,1-1.46,1.44,5.46,5.46,0,0,0-1.54,1.28,4,4,0,0,0-.67,1.69,4.71,4.71,0,0,1-.3,1.75c-.6,1.09-2.24.91-3.27.77a18.24,18.24,0,0,1-4.33-1.27c-2.84-1.13-4.56-3.53-7.22-5" transform="translate(795 52)"/><path class="cls-9" d="M381,192s.66.8-1,4c-.64,1.23-.48,6,10,4,12.42-2.39,4-9,4-9Z" transform="translate(795 52)"/><polyline class="cls-10" points="1164.07 190.08 1164.07 191.36 1164.07 192.65 1165.35 191.36"/><polygon class="cls-10" points="1191.04 201.64 1196.18 201.64 1196.18 223.47 1189.76 218.34 1191.04 201.64"/><path class="cls-11" d="M444.72,116.47a13.38,13.38,0,0,0-.07,2.61c-.08,1.68-.24,3.37-.36,5-.06.85-.62,10.09-.72,10.09h2.57c.23-3.18.54-6.35.79-9.53.23-2.82,1-6.35.24-9.09a2.31,2.31,0,0,0-.58-1.09,1.07,1.07,0,0,0-1.14-.27,1.36,1.36,0,0,0-.6.61,4.2,4.2,0,0,0-.56,1.65A2,2,0,0,1,444.72,116.47Z" transform="translate(795 52)"/><path d="M379.84,107.1l.16-.1C379.83,107.07,379.8,107.1,379.84,107.1Z" transform="translate(795 52)"/><path d="M378,109h-.12" transform="translate(795 52)"/><path class="cls-12" d="M261,329.33l13-35.83s-1.29-9,15.41-7.71,15.8-.22,18.18,8.88,13.93,50.21,13.93,50.21H261.17Z" transform="translate(795 52)"/><path d="M378,109h0" transform="translate(795 52)"/><path class="cls-13" d="M442.73,114.92c-1.39,0-2.77,0-4.16,0l.67-2.76a2.34,2.34,0,0,0-1.81-2.85c-15.07-3.08-30.42-5.42-45.75-4.34a35.18,35.18,0,0,0-7.35,1.16,18,18,0,0,0-2.65,1c-.57.45-1.34,1-1.59,1.18s-1,.48-1.64.73c-.22.13-.39.23-.38.19a.17.17,0,0,1,0,0l-.61.21c-.1,0-.86.13-1.58.22l-.29.19a8.54,8.54,0,0,1-2.76-.07,10.27,10.27,0,0,0-3.18.24c-1.77.45-3.2,1.22-3.55,3a9.33,9.33,0,0,0,.34,4.26q2.44,7.13,4.88,14.25a29.7,29.7,0,0,0,3.2,7.18,10,10,0,0,0,6.25,4.46q-.26,6.39.06,12.78a9.13,9.13,0,0,0,.67,3.59,3.29,3.29,0,0,0,2.84,2,3.5,3.5,0,0,0,2.87-2.3,20.93,20.93,0,0,0,.91-3.77c.67-3,2.53-5.9,5.64-6.68a5.32,5.32,0,0,1,4.07.59c2.23,1.38,2.34,3.73,2.32,5.91A75.28,75.28,0,0,1,399,167.72a96.34,96.34,0,0,0,15,7.78q2.43-11,5.24-22L417.54,161a44.91,44.91,0,0,1,9.3-17.21,29,29,0,0,1,16.85-9.49q1.2-9.15,2.46-18.3C446.43,113.93,443.84,114.92,442.73,114.92Z" transform="translate(795 52)"/><path class="cls-9" d="M216,174.77c-1.67-4.61-4.59-10.08-6-14.77s-1.42-8.78-2.62-13.59a.66.66,0,0,0-.79-.48L196,148.27a.68.68,0,0,0-.49.44l-8.84,26.54a.45.45,0,0,0,0,.16l-1.21,15.78a.66.66,0,0,0,.34.63,3.08,3.08,0,0,0,2.64-.29,9.94,9.94,0,0,1,6.37-2.09,11.76,11.76,0,0,1,1.82.15,7.77,7.77,0,0,1,2.9-1.72,7.87,7.87,0,0,1,2.78-.85,9.67,9.67,0,0,1,7.56-3.24h.22c-.31-1.5,1.19-.86,1.89-2s-.41-2.45-.72-3.38a.68.68,0,0,1,.33-.81l4.09-2A.65.65,0,0,0,216,174.77Z" transform="translate(795 52)"/><path class="cls-9" d="M197.09,203.62c.34.1,2.8-2.91,3.16-3.27a103.77,103.77,0,0,1,11.2-9.42,88,88,0,0,1,7-5.39,16.46,16.46,0,0,1,10.74-2,9.06,9.06,0,0,1,2.84.85c.7.36,1.88,1.13,2.07,2s-2.3.89-2.86,1a14.69,14.69,0,0,0-3.82.91c-1.31.56-2.57,1.71-2.5,3.13a.67.67,0,0,0,.2.51.83.83,0,0,0,.71.05,14.06,14.06,0,0,1,4.42-.52c1.35.1,4.73.88,4,2.87-.3.83-3.95.67-4.7.7a13.34,13.34,0,0,0-3.89.33,9.35,9.35,0,0,0-3,2.19c-2,1.69-4.67,2.29-7.09,3.1-2.8.93-5.49,2.89-8.08,4.34a3.7,3.7,0,0,1-.91.4c-1,.22-2.18-.29-3.14-.48l-2.91-.58C199.39,204.08,198.2,203.93,197.09,203.62Z" transform="translate(795 52)"/><path class="cls-14" d="M140.9,135.34a11.21,11.21,0,0,1,1.39-2,45.1,45.1,0,0,1,4.26-4.8,48,48,0,0,1,7.19-5.76,43.89,43.89,0,0,1,10.19-4.9,44.81,44.81,0,0,1,13.24-2.21A50.1,50.1,0,0,1,184,116a30.19,30.19,0,0,1,8.21,2.07,25.7,25.7,0,0,1,7.06,4.64c.23.2.46.42.68.63.78.73,1.53,1.48,2.27,2.25a28,28,0,0,1,5.47,7.83,16,16,0,0,1,1.18,9.59c-.86,4.2-3.47,7.8-6.5,10.74a42,42,0,0,1-3.58,3.07c-.4.31-4.43,2.95-4.4,3s3.85,11.56-6.42,12.85c0,0,11.56,10.27,1.28,18,0,0,9,5.14,6.42,11.56s0,1.29,0,1.29,21.84,0,15.42,9c0,0,25.69,5.14,11.56,18,0,0,8.29,3.74,1.58,7s-127.46-4.44-127.46-4.44Z" transform="translate(795 52)"/><path d="M135.76,135.34a11.15,11.15,0,0,1,1.35-1.93,45,45,0,0,1,4.15-4.69,46.45,46.45,0,0,1,7-5.68A43.68,43.68,0,0,1,171,115.72a50.17,50.17,0,0,1,7.25.25,27.69,27.69,0,0,1,15.91,6.84,35.39,35.39,0,0,1,7.46,8.81,17.23,17.23,0,0,1,2.39,9.26,18.23,18.23,0,0,1-4.56,10.53,34,34,0,0,1-4.26,4.22c-.89.75-1.81,1.46-2.75,2.14-.29.2-3.22,2-3.19,2.14s3.85,11.56-6.42,12.85c0,0,11.56,10.27,1.28,18,0,0,9,5.14,6.43,11.56s0,1.29,0,1.29,21.83,0,15.41,9c0,0,25.69,5.14,11.56,18,0,0,8.3,3.74,1.58,7s-127.46-4.44-127.46-4.44Z" transform="translate(795 52)"/><path class="cls-9" d="M369.07,139.36V149.9a2.67,2.67,0,0,0,.61,1.71c1,1.28,2.91,4.15,2,7-1.29,3.85-2.57,12.84,0,16.7s7.7,12.84,7.7,12.84l1.29,2.57a5.1,5.1,0,0,1,.61,2.41,2.82,2.82,0,0,1-.26.84c-.28.6-.65,1.19-.3,1.87a2.88,2.88,0,0,0,.74.82,11.59,11.59,0,0,0,9.25,2.27,18.56,18.56,0,0,0,5.37-1.79c10.28-5.13,12.85-3.85,12.85-3.85l5.14-18-15.42-7.71s2.57-15.41,0-18-11.26-1.37-11.56,7.7c-.31,9.55-6.57-.43-7.06-.64V146.43C379.92,146.2,376.06,148.71,369.07,139.36Z" transform="translate(795 52)"/><path class="cls-15" d="M366,111s.5,11.66,8.21,18.09h0s1.28,1.28-1.29,1.28c0,0-2.57,7.71,6.42,11.56l1.29,1.29L384,161l-4-3-.66-10.93s-10.27-2.57-10.27-9v-7.71S360.86,126.41,366,111Z" transform="translate(795 52)"/><path class="cls-9" d="M316.41,193.31s1.28,2.57,5.13,0a16.42,16.42,0,0,1,4.93-2.32,2.58,2.58,0,0,1,2.6.8l.12.15c1.87,2.25-1,5.35-3.47,3.73l-.3-.2a2.6,2.6,0,0,0-2.84-.1c-1.39.87-2.64,2.24,1.53,3.08a13.47,13.47,0,0,1,8.3,5.33,2.6,2.6,0,0,0,2.11,1.09H347.6a2.62,2.62,0,0,1,1.63.58l2.71,2.21a2.58,2.58,0,0,0,3.58-.31l1.26-1.44a2.59,2.59,0,0,0-.62-3.91l-10-6a2.6,2.6,0,0,1-.38-.27l-9.35-8.19a2.61,2.61,0,0,0-1.75-.64c-4.25.1-20.5.82-18.26,6.41" transform="translate(795 52)"/><path d="M410.81,197.16s-21.83-1.28-28.25,19.27L339,234l-18.1,53.08-10.27,16.7c-3.18,2.33,8.66,30.38,9,33.39.61,5.71,36.6-84.13,36.6-84.13s10.28-21.84,41.11-21.84,80.92,2.57,80.92,2.57V201.66Z" transform="translate(795 52)"/><path d="M357.51,199.73s-7.71,6.43-6.42,11.56l15.41,11.56,14.13-6.42,1.28-6.42-15.41-5.14.64,3.21Z" transform="translate(795 52)"/><path d="M306.13,276.8v11.56l4.56,15.54,4.29-7,6.56-22.7S313.84,267.81,306.13,276.8Z" transform="translate(795 52)"/><path class="cls-11" d="M357.8,200l-.12-1.13a.77.77,0,0,1,1.21-.7l7.49,5.35a.66.66,0,0,0,.27.12l15.89,3.67a.77.77,0,0,0,.88-.45c1.05-2.53,6.29-12.29,25.62-14.73a.77.77,0,0,1,.86.84l-.48,4.8a.76.76,0,0,1-.73.69c-3.54.09-20.2,1.42-26,18.32a.77.77,0,0,1-.4.45l-42.64,18.9a.73.73,0,0,0-.4.44L320.43,287.9a1.17,1.17,0,0,1-.05.11l-1.92,3.4a.76.76,0,0,1-1.4-.59l5.13-17.23,12.73-39.47a.77.77,0,0,1,.45-.48l44.21-16.84a.79.79,0,0,0,.46-.5l1.66-5.58a.77.77,0,0,0-.49-.95L368,205.35a.77.77,0,0,0-1,.81h0a.76.76,0,0,1-1.26.65l-7.62-6.6" transform="translate(795 52)"/><path class="cls-16" d="M307.41,271.66l1.24-14.87a2.24,2.24,0,0,1,.36-1.06,10.2,10.2,0,0,1,8.68-4.62s3.85,0-3.85,7.71h0l3.84,8.64a2.34,2.34,0,0,1-1.88,3.27l-8.39.93" transform="translate(795 52)"/><path class="cls-8" d="M221.35,229.28s16.7,3.85,23.12,38.53h0s2.57,7.71,3.86-3.85l5.14,11.56a23.09,23.09,0,0,1,4.71,1.86c2.71,1.43,5.56,3.74,5.56,7.13l5.14,3.85s-3.85,19.27-23.12,9L214.93,237l6.42-7.7" transform="translate(795 52)"/><path class="cls-11" d="M304,276a1.38,1.38,0,0,0,1.49.83,4.91,4.91,0,0,0,1.75-.95,16.46,16.46,0,0,1,6.44-3.1,10.8,10.8,0,0,1,6.08.6,5,5,0,0,0,1.45.46,1.29,1.29,0,0,0,1.29-.61,1.6,1.6,0,0,0-.61-1.77,9,9,0,0,0-5.39-1.88,16.45,16.45,0,0,0-7.1.87c-2,.74-4.31,2.11-5.24,4.16a2.25,2.25,0,0,0-.24,1A1.15,1.15,0,0,0,304,276Z" transform="translate(795 52)"/><polyline class="cls-8" points="1042.04 315.96 1045.9 317.24 1051.03 330.09 1044.61 327.52 1042.04 315.96"/><path class="cls-17" d="M269.67,320.78c.78-2,1.69-3.79,2.22-5.06.08-1.47,1.45-3.54,2-4.91l2.17-5.29c1.3-3.19,1.77-7,4.08-9.72,2.84-3.32,8.83-3,12.79-2.66a9.49,9.49,0,0,1,8.3,5.23,24,24,0,0,1,2.21,8.35c.59,4.63,1.58,9.2,2.57,13.75.55,2.54,1.86,4.92,2.23,7.51,1,7.23-9.09,4.51-13.06,4.37l-13.43-.45c-2.29-.08-4.6-.22-6.9-.23-1.67,0-3.6.28-5-.86C267.2,328.57,268.22,324.41,269.67,320.78Z" transform="translate(795 52)"/><path class="cls-8" d="M478,232s79.89-2.72,83.74,38.38,20.55,91.2,20.55,91.2H316.41l3.85-25.69,48.81-95Z" transform="translate(795 52)"/><path class="cls-8" d="M105.75,229.28C109,230,26,228.13,22.26,269.09c-3.75,41.12-20.55,91.2-20.55,91.2H267.59l-3.85-25.69-48.81-95.05S102.5,228.55,105.75,229.28Z" transform="translate(795 52)"/><path class="cls-8" d="M128,134l-7.55-1.71c-4.81,1.47-64.7,5.81-59.66,37.9,5.62,35.73-19.26,56.52,18,55.23,27.33-.94,64.35-2.57,82.12-3.38a9.07,9.07,0,0,0,8.5-10.81c-4.64-23.77-17.93-80-39.24-77Z" transform="translate(795 52)"/><path class="cls-18" d="M108.32,134.22s46.24-15.41,57.8,29.55S167.41,219,167.41,219C167.93,222.56,168,124.94,108.32,134.22Z" transform="translate(795 52)"/><path class="cls-8" d="M176.4,116.24" transform="translate(795 52)"/><path class="cls-9" d="M268.88,288.36c7-15.81,14.05-29.62,22.07-45a5.71,5.71,0,0,0,.89-3.47c-.13-.86-.63-1.64-.69-2.51s.4-2,0-2.81c-.31-.61-1-.92-1.35-1.52-.5-.89,0-2,.24-3s-.13-2.41-1.15-2.39c-.23,0-.46.09-.69.08-.8,0-1-1.14-.85-1.91s.63-1.58.33-2.32a1.8,1.8,0,0,0-2.23-.84,5.4,5.4,0,0,0-2.09,1.56c-4.47,4.7-9.2,10-9.62,16.44-.21,3.14.64,6.23,1.2,9.32a7.92,7.92,0,0,1,.12,3.1c-.29,1.34-1.33,2.36-2.07,3.51-1.16,1.82-2.39,3.59-3.64,5.34-1.4,1.94-2.83,3.85-4.34,5.7a25.78,25.78,0,0,1-3.69,3.91c-.59.47-1.37.54-1.65,1.35a1.93,1.93,0,0,0,.28,1.61c3.1,5.44,4.6,7,7.69,12.49" transform="translate(795 52)"/><path class="cls-14" d="M225.07,224.37a.24.24,0,0,1,.35-.07c2.5,1.95,26.76,21.12,26.76,34.52a22.75,22.75,0,0,0,1,7.46,9.57,9.57,0,0,0,2.38,3.91,7,7,0,0,0,2.07,1.34,5.59,5.59,0,0,0,1.19.35c.3.05.9,0,1.13.15a.56.56,0,0,1,.14.2l.51,1,.76,1.37,1.53,2.75,3.11,5.64,2.49,4.5.65,1.17a.24.24,0,0,1-.35.32l-6.32-4.39a.28.28,0,0,1-.09-.1c-.27-.71-3-7.33-8.32-8.75a.24.24,0,0,1-.14-.12l-4.91-10a.24.24,0,0,0-.45.07c-.43,2.8-2.13,11.53-5.42-1.65-3.85-15.42-16.7-36-21.84-33.4h0Z" transform="translate(795 52)"/><path class="cls-14" d="M219,231" transform="translate(795 52)"/><path class="cls-18" d="M262.93,332.64c-2.72-2.72-4.22-9.94-5.74-13.52q-3.18-7.51-6.38-15c-6.24-14.72-12.51-29.44-18.57-44.23-3.57-8.73-8.15-17.5-15.38-23.77-7.93-6.86-18.58-9.33-28.85-10-8.95-.54-17.91.33-26.85,1q-21,1.64-42.16,2c-10.19.18-20.4.12-30.53,1.23a132.19,132.19,0,0,0-14.4,2.38A57.78,57.78,0,0,0,86.75,235c28.71,2.63,57.57,1.42,86.32,2.42l2.44.09c5.81.25,12,.2,17.52,1.88a56.36,56.36,0,0,1,15.3,7.19c9.41,6.33,15.14,16.79,19.95,26.81,6.94,14.44,14.14,28.57,21.57,42.74,2,3.83,4.08,7.64,6,11.49.37.74,2.73,4.69,4.37,7.76a1.68,1.68,0,0,0,3.16-.62.53.53,0,0,0,0-.13A4.46,4.46,0,0,0,262.93,332.64Z" transform="translate(795 52)"/><polyline class="cls-18" points="1119.11 381.71 1118.92 380.75 1113.97 389.17 1114 393 1120.4 382.75"/><path class="cls-18" d="M475.89,231.89c-1.41-.09-2.93.08-4.18.07q-3.85-.06-7.71-.17c-4.84-.15-9.84-.36-14.58-.55-12.86-.54-25.66-1.36-38.49-2.26-12.12-.85-24.65-.78-35.86,4.49a39.6,39.6,0,0,0-15.82,13.06c-3.4,4.92-5.47,10.56-7.56,16.12-4.67,12.41-10.35,24.55-15.51,36.78q-7.44,17.65-14.9,35.29a7.9,7.9,0,0,0-.62,1.87c0,.2,0,.4-.05.59,0,1.57-1.4,2.43-.61,3.82-.51-.64,7.51-9.64,8.11-10.83,2-3.85,4-7.66,6-11.49q6.3-12,12.48-24.13,4.62-9,9.15-18.09c2.66-5.32,4.77-10.95,8.18-15.86a44.36,44.36,0,0,1,11.71-11.47,56.36,56.36,0,0,1,15.3-7.19c5.57-1.68,11.71-1.63,17.52-1.88l2.44-.09c26.9-.94,75.15-4.59,102.07-5C509,232,476.37,231.89,475.89,231.89Z" transform="translate(795 52)"/><rect class="cls-19" x="305.92" y="219.96" width="28.83" height="1.31" transform="translate(749.04 141.79) rotate(-14.9)"/><rect class="cls-19" x="308.27" y="225.16" width="28.83" height="1.31" transform="matrix(0.97, -0.26, 0.26, 0.97, 747.79, 142.57)"/><rect class="cls-19" x="310.77" y="231.63" width="28.65" height="1.63" transform="translate(746.16 143.41) rotate(-14.9)"/><polygon points="982.96 254.3 988.1 256.87 985.53 260.72 980.39 258.15 982.96 254.3"/><polygon class="cls-8" points="1055.98 389.39 1117.18 393.67 1112.69 413.58 1054.49 412.29 1055.98 389.39"/><path class="cls-12" d="M261.37,328.14l-3.23,7.21a1.38,1.38,0,0,0,1.17,1.95l4.47.29a1.39,1.39,0,0,0,1.46-1.61l-1.24-7.5a1.38,1.38,0,0,0-1.79-1.09h0A1.39,1.39,0,0,0,261.37,328.14Z" transform="translate(795 52)"/><path class="cls-12" d="M319.62,336.5l1.2,2.79a1.56,1.56,0,0,1-1.54,2.17l-2.68-.18a1.55,1.55,0,0,1-1.24-2.32l1.47-2.61A1.56,1.56,0,0,1,319.62,336.5Z" transform="translate(795 52)"/><polygon class="cls-8" points="797 412 772 458 1461 458 1355 406 797 412"/><polygon class="cls-4" points="1450.76 118.52 1329.75 238.53 1511.91 277.61 1450.76 118.52"/><polygon class="cls-8" points="1355 381 1401 450 1329 435 1355 381"/><path class="cls-8" d="M616,260" transform="translate(795 52)"/><path class="cls-20" d="M453,55" transform="translate(795 52)"/><path class="cls-21" d="M94.66,235.45l3.62.44a33.28,33.28,0,0,0,4.1.31" transform="translate(795 52)"/><path class="cls-21" d="M95.89,235.36a18,18,0,0,1,5.65,1.2" transform="translate(795 52)"/><path class="cls-8" d="M297.38,316c-5-8-3.7-44-3.7-44h-8s0,36-5,44c-4.73,7.57-3.51,11.11,7.38,11.68v.07l1,0,1,0v-.07C300.89,327.11,302.11,323.57,297.38,316Z" transform="translate(795 52)"/><path class="cls-21" d="M96.89,235.77a.13.13,0,0,1,0-.11c3.17.24,6.31.94,9.48.86" transform="translate(795 52)"/><path class="cls-8" d="M452.41,134l7.54-1.71c4.82,1.47,64.71,5.81,59.66,37.9-5.61,35.73,19.27,56.52-18,55.23-27.33-.94-64.35-2.57-82.12-3.38a9.07,9.07,0,0,1-8.5-10.81c4.64-23.77,17.93-80,39.24-77Z" transform="translate(795 52)"/><path class="cls-18" d="M472.09,134.22s-46.24-15.41-57.8,29.55S413,219,413,219C412.48,222.56,412.45,124.94,472.09,134.22Z" transform="translate(795 52)"/><path class="cls-11" d="M304,276l1,2s8-9,16-4a7.79,7.79,0,0,0,.85.56,4.23,4.23,0,0,0,.49-1,1.7,1.7,0,0,0,.16-1.1,1.67,1.67,0,0,0-.44-.7,5.35,5.35,0,0,0-3.29-1.34,23.14,23.14,0,0,0-4-.27,13.78,13.78,0,0,0-7.46,2.17A10.76,10.76,0,0,0,304,276Z" transform="translate(795 52)"/><polygon points="1110 344 1115 350 1105.61 361.4 1101 341 1101.13 337.95 1110 344"/><path class="cls-18" d="M290.92,274.23h-3.13a5.55,5.55,0,0,1-4.57-2.45,5.44,5.44,0,0,1-.88-2.29c-.1-.86-.11-2.6-.11-2.6s.08-.89.18-1.33a2.64,2.64,0,0,1,.61-1,12,12,0,0,1,1.12-1.25,9.66,9.66,0,0,1,2.61-1.87A6.84,6.84,0,0,1,288,261h2a18.72,18.72,0,0,1,2.65,1.23,13.72,13.72,0,0,1,2.3,1.53,3.64,3.64,0,0,1,1.36,2.1,12.08,12.08,0,0,1,.08,3.45,5.45,5.45,0,0,1-.91,2.49A5.55,5.55,0,0,1,290.92,274.23Z" transform="translate(795 52)"/><path class="cls-11" d="M322,273a32.92,32.92,0,0,0-1.15,3.93c-.59,2-1.17,4-1.77,6-1,3.32-2.11,6.61-2.91,10l-.09.4a1.36,1.36,0,0,0-.05.6c.18.95.83-.24,1-.52.53-.79,1.17-1.5,1.64-2.32a29.77,29.77,0,0,0,1.67-4.29c.43-1.12.82-2.26,1.23-3.38l2.45-6.78c.05-.14.94-2.62.95-2.62Z" transform="translate(795 52)"/><polyline class="cls-8" points="1373.43 401.12 1393 425 759 425 804 408"/><path class="cls-8" d="M303,283" transform="translate(795 52)"/><path class="cls-22" d="M282.29,267.17h0a7.09,7.09,0,0,1,7.07-7.07h0a7.09,7.09,0,0,1,7.06,7.07h0C297.11,261.68,283,261.68,282.29,267.17Z" transform="translate(795 52)"/><polyline class="cls-23" points="1131.5 267.5 1135.25 269.75 1136 264.5"/><polyline class="cls-23" points="1135.5 279.29 1138.42 281 1139 277"/><polyline class="cls-23" points="1133.5 273.07 1136.71 275 1137.36 270.5"/><path class="cls-24" d="M233.5,106.5" transform="translate(795 52)"/><path class="cls-25" d="M334.82,81.32H262.89c-3.53,0,4.49-3.53,4.49-7.06h0a6.44,6.44,0,0,1,6.43-6.42h52.66a6.44,6.44,0,0,1,6.42,6.42h0C332.89,77.79,338.35,81.32,334.82,81.32Z" transform="translate(795 52)"/><polygon class="cls-26" points="1067.04 133 1074.04 120 1080.04 120 1074.04 133 1067.04 133"/><polygon class="cls-26" points="1075.04 133 1082.04 120 1088.04 120 1082.04 133 1075.04 133"/><path class="cls-27" d="M334.77,81.38l-66.46-.11h-5.47c-3.53,0,4.5-3.52,4.51-7.06h0a6.44,6.44,0,0,1,6.43-6.41l52.66.09a6.44,6.44,0,0,1,6.41,6.44h0C332.85,77.85,338.3,81.39,334.77,81.38Z" transform="translate(795 52)"/><polyline class="cls-14" points="1014 283 1014.38 283.64 1016.66 282.44 1018 281 1017 281 1017 280 1014 283"/><path class="cls-4" d="M89-171" transform="translate(795 52)"/><path class="cls-15" d="M365,116s-1-4,2-6a8.77,8.77,0,0,0-1,6c.52,4-1,0-1,0" transform="translate(795 52)"/><polygon class="cls-4" points="729.63 106.42 847.22 236.53 675.75 273.31 729.63 106.42"/></svg>