<?xml version="1.0" encoding="utf-8"?>
<!-- Generator: Adobe Illustrator 23.0.3, SVG Export Plug-In . SVG Version: 6.00 Build 0)  -->
<svg version="1.1" id="Layer_1" xmlns="http://www.w3.org/2000/svg" xmlns:xlink="http://www.w3.org/1999/xlink" x="0px" y="0px"
	 viewBox="0 0 598 433" style="enable-background:new 0 0 598 433;" xml:space="preserve">
<style type="text/css">
	.st0{fill:#41395B;}
	.st1{fill:#C7EAE4;}
	.st2{fill:#282A36;}
	.st3{fill:url(#SVGID_1_);}
	.st4{fill:#6398AB;}
	.st5{fill:none;stroke:#41395B;stroke-width:7;stroke-miterlimit:10;}
	.st6{fill:#C6C6C6;stroke:#FFFFFF;stroke-miterlimit:10;}
	.st7{fill:#D39CB3;}
	.st8{fill:#873D53;}
	.st9{fill:#AE9A3E;}
	.st10{fill:#302E3A;}
	.st11{stroke:#000000;stroke-width:2;stroke-miterlimit:10;}
	.st12{fill:#B2A039;}
	.st13{fill:#AA9740;}
	.st14{fill:#E1BBC9;}
	.st15{fill:#373359;}
	.st16{fill:#B1A039;}
	.st17{fill:#FCFCFC;}
	.st18{fill:url(#SVGID_2_);}
	.st19{fill:none;}
	.st20{fill:#E8C723;}
	.st21{fill:none;stroke:#0F9B00;stroke-width:0.75;stroke-miterlimit:10;}
	.st22{fill:#C1BCBC;stroke:#41395B;stroke-width:0.25;stroke-miterlimit:10;}
	.st23{fill:#EFEDED;stroke:#41395B;stroke-width:0.75;stroke-miterlimit:10;}
	.st24{opacity:0.5;fill:#FFFFFF;}
	.st25{fill:none;stroke:#41395B;stroke-width:0.75;stroke-miterlimit:10;}
</style>
<path class="st0" d="M616,260"/>
<path class="st1" d="M89-171"/>
<g>
	<path class="st2" d="M576.72,70H6c-6.6,0-12,5.4-12,12v274c0,6.6,5.4,12,12,12h570.72c6.6,0,12-5.4,12-12V82
		C588.72,75.4,583.32,70,576.72,70z"/>
	<linearGradient id="SVGID_1_" gradientUnits="userSpaceOnUse" x1="293.3976" y1="697.2195" x2="294.7567" y2="84.0485">
		<stop  offset="0.0638" style="stop-color:#41395B"/>
		<stop  offset="0.3524" style="stop-color:#3C3654"/>
		<stop  offset="0.7704" style="stop-color:#2F2E41"/>
		<stop  offset="0.955" style="stop-color:#282A36"/>
	</linearGradient>
	<rect x="-9" y="-6" class="st3" width="606.93" height="444"/>
	<path class="st4" d="M214.7,202.51l78.46,10.06c0,0-14.13-24.78-37.96-27.54S214.7,202.51,214.7,202.51z"/>
	<path class="st1" d="M113.1,81.09l33.79,76.03c0.5,1.12,1.65,1.8,2.88,1.68c19.01-1.85,167.46-15.25,300.44,3.84
		c1.44,0.21,2.8-0.69,3.16-2.1l21.68-82.95c0.38-1.47-0.44-2.97-1.88-3.44C452.76,67.59,311.91,26.72,115,77.15
		C113.29,77.59,112.38,79.47,113.1,81.09z"/>
	<ellipse class="st5" cx="244.15" cy="227.35" rx="43.35" ry="37.25"/>
	<polygon class="st6" points="367.5,256.25 323.83,276.8 298.23,217.24 345.66,207.44 	"/>
	<path d="M379.34,108.53c0,0,20.55-15.41,62.94,1.28c0,0-1.28,6.42-5.14,6.42c0,0-2.68-6.18,0-5.14
		C439.14,111.88,410.86,104.62,379.34,108.53"/>
	<path class="st0" d="M211.05,204.87c-0.63,1.27,51.7-2.25,77.55,34.47c1.54-6.36-50.93-3.19-56.62,24.62l-11.08-3.69
		c0,0,19.08-28.93-10.46-54.78"/>
	<path class="st7" d="M208,181c1.37,1,2.86,2.62,1.79,4.37c-0.36,0.59-0.9,1.05-1.47,1.44c-0.55,0.38-1.15,0.71-1.54,1.27
		c-0.35,0.5-0.58,1.08-0.67,1.69c-0.09,0.58,0,1.22-0.3,1.75c-0.61,1.09-2.24,0.91-3.27,0.77c-1.5-0.2-2.94-0.71-4.34-1.27
		c-2.84-1.13-4.56-3.53-7.22-5.03"/>
	<path class="st7" d="M381,192c0,0,0.66,0.8-1,4c-0.64,1.23-0.48,6.02,10,4c12.42-2.39,4-9,4-9L381,192z"/>
	<polyline class="st8" points="369.07,138.08 369.07,139.36 369.07,140.65 370.35,139.36 	"/>
	<polygon class="st8" points="396.04,149.64 401.18,149.64 401.18,171.47 394.76,166.34 	"/>
	<path class="st9" d="M444.72,116.47c-0.21,0.87-0.02,1.73-0.07,2.61c-0.08,1.68-0.24,3.37-0.36,5.05
		c-0.06,0.85-0.62,10.1-0.72,10.1c0.01,0,2.57,0,2.57,0c0.23-3.18,0.54-6.35,0.8-9.53c0.23-2.82,0.99-6.35,0.23-9.09
		c-0.11-0.4-0.27-0.8-0.57-1.09s-0.77-0.44-1.15-0.27c-0.27,0.12-0.45,0.36-0.6,0.61c-0.3,0.5-0.49,1.07-0.56,1.65
		C444.3,116.47,444.7,116.47,444.72,116.47z"/>
	<path d="M379.84,107.1L380,107C379.83,107.07,379.8,107.1,379.84,107.1z"/>
	<path d="M378,109c-0.04,0-0.08,0-0.12,0"/>
	<path class="st10" d="M260.98,329.33l13.03-35.83c0,0-1.28-8.99,15.41-7.71s15.8-0.23,18.17,8.88s13.94,50.21,13.94,50.21h-60.37
		L260.98,329.33z"/>
	<path d="M377.96,108.99c0.01,0.01,0.02,0.01,0.04,0.01"/>
	<path class="st11" d="M442.73,114.92c-1.39,0-2.78,0.03-4.16,0.03l0.67-2.76c0.32-1.29-0.5-2.59-1.81-2.86
		c-15.07-3.07-30.42-5.41-45.75-4.33c-2.48,0.17-4.97,0.46-7.36,1.15c-0.91,0.26-1.79,0.61-2.64,1.01
		c-0.57,0.45-1.34,1.03-1.59,1.18c-0.29,0.17-1.01,0.48-1.64,0.73c-0.22,0.13-0.38,0.23-0.38,0.19c0-0.02,0.01-0.04,0.02-0.05
		c-0.25,0.09-0.47,0.17-0.6,0.21c-0.11,0.03-0.87,0.14-1.58,0.23l-0.3,0.19c-0.89,0.25-1.86-0.02-2.76-0.07
		c-1.07-0.06-2.15-0.03-3.18,0.24c-1.76,0.46-3.2,1.22-3.55,3.01c-0.25,1.25-0.07,3.05,0.35,4.26c1.63,4.75,3.25,9.5,4.88,14.25
		c0.85,2.49,1.72,5.01,3.2,7.18s3.66,4,6.25,4.46c-0.17,4.26-0.15,8.52,0.06,12.78c0.06,1.22,0.14,2.48,0.67,3.59s1.62,2.03,2.84,2
		c1.29-0.03,2.36-1.11,2.87-2.3s0.62-2.51,0.9-3.77c0.67-2.99,2.54-5.89,5.65-6.68c1.37-0.35,2.87-0.15,4.07,0.59
		c2.23,1.38,2.34,3.73,2.32,5.91c-0.04,4.17-0.43,8.34-1.16,12.45c4.77,3.02,9.8,5.63,15.03,7.77c1.63-7.35,3.38-14.68,5.25-21.97
		c-0.58,2.48-1.16,4.96-1.74,7.45c1.92-6.29,4.88-12.34,9.3-17.21c4.41-4.87,10.35-8.51,16.85-9.49c0.81-6.1,1.63-12.2,2.46-18.3
		C446.43,113.93,443.84,114.92,442.73,114.92z"/>
	<path class="st7" d="M216.01,174.77c-1.68-4.61-4.59-10.08-6.01-14.77c-1.44-4.74-1.42-8.78-2.62-13.59
		c-0.09-0.35-0.44-0.57-0.79-0.49l-10.56,2.35c-0.23,0.05-0.41,0.22-0.49,0.44l-8.85,26.54c-0.02,0.05-0.03,0.11-0.03,0.16
		l-1.21,15.78c-0.02,0.26,0.11,0.51,0.34,0.63c0.79,0.44,1.72,0.09,2.65-0.29c1.61-1.29,3.73-2.1,6.37-2.1
		c0.64,0,1.24,0.06,1.82,0.15c0.85-0.78,1.81-1.36,2.9-1.72c0.88-0.46,1.81-0.74,2.78-0.85c1.69-1.95,4.2-3.25,7.56-3.25
		c0.08,0,0.15,0.01,0.22,0.01c-0.31-1.5,1.19-0.86,1.88-1.96c0.62-0.98-0.4-2.45-0.72-3.38c-0.1-0.31,0.04-0.66,0.33-0.81l4.09-2.04
		C215.99,175.44,216.13,175.09,216.01,174.77z"/>
	<path class="st7" d="M197.09,203.62c0.34,0.09,2.8-2.91,3.16-3.27c3.45-3.47,7.31-6.48,11.2-9.43c2.34-1.77,4.45-3.85,6.96-5.38
		c3.13-1.91,7.13-2.5,10.73-1.97c0.98,0.14,1.96,0.39,2.84,0.85c0.7,0.36,1.88,1.13,2.07,1.97c0.2,0.91-2.29,0.9-2.86,0.98
		c-1.3,0.18-2.61,0.39-3.82,0.91c-1.31,0.56-2.57,1.7-2.5,3.12c0.01,0.19,0.05,0.4,0.2,0.51c0.19,0.15,0.47,0.1,0.71,0.04
		c1.45-0.35,2.93-0.63,4.42-0.52c1.35,0.1,4.73,0.88,4.01,2.88c-0.3,0.83-3.95,0.67-4.7,0.7c-1.3,0.05-2.63-0.1-3.89,0.33
		c-1.26,0.43-1.99,1.35-2.97,2.18c-1.98,1.69-4.67,2.3-7.09,3.1c-2.8,0.93-5.49,2.9-8.08,4.34c-0.29,0.16-0.59,0.33-0.91,0.4
		c-0.96,0.22-2.18-0.29-3.14-0.48c-0.97-0.19-1.94-0.39-2.91-0.58C199.39,204.08,198.2,203.93,197.09,203.62z"/>
	<path class="st12" d="M140.9,135.34c0.32-0.71,0.93-1.38,1.4-1.99c1.3-1.7,2.73-3.3,4.26-4.79c2.2-2.15,4.61-4.09,7.19-5.76
		c3.17-2.06,6.6-3.72,10.19-4.9c4.27-1.41,8.75-2.13,13.24-2.21c2.28-0.04,4.55,0.08,6.81,0.35c2.81,0.33,5.6,0.97,8.21,2.07
		c2.67,1.12,4.9,2.74,7.06,4.64c0.23,0.2,0.45,0.41,0.68,0.62c0.78,0.73,1.53,1.49,2.27,2.26c2.21,2.3,4.17,4.9,5.47,7.83
		c1.33,3.01,1.84,6.34,1.18,9.58c-0.86,4.2-3.47,7.8-6.49,10.74c-1.13,1.1-2.33,2.12-3.58,3.08c-0.4,0.31-4.43,2.95-4.4,3.05
		c0,0,3.85,11.56-6.42,12.84c0,0,11.56,10.28,1.28,17.98c0,0,8.99,5.14,6.42,11.56c-2.57,6.42,0,1.28,0,1.28s21.84,0,15.41,8.99
		c0,0,25.69,5.14,11.56,17.98c0,0,8.3,3.74,1.58,7.01c-6.72,3.27-127.46-4.44-127.46-4.44S140.89,135.36,140.9,135.34z"/>
	<path d="M135.76,135.34c0.31-0.69,0.91-1.34,1.36-1.94c1.26-1.66,2.66-3.22,4.14-4.69c2.14-2.11,4.48-4.02,6.99-5.68
		c3.08-2.04,6.4-3.71,9.89-4.92c4.14-1.44,8.49-2.23,12.86-2.41c2.42-0.09,4.84,0,7.25,0.25c5.96,0.64,11.44,2.81,15.91,6.84
		c2.86,2.58,5.58,5.42,7.47,8.81c1.58,2.82,2.55,6,2.38,9.26c-0.21,3.94-2.07,7.55-4.56,10.54c-1.28,1.54-2.73,2.93-4.26,4.22
		c-0.89,0.75-1.81,1.46-2.75,2.14c-0.29,0.21-3.22,2.06-3.19,2.15c0,0,3.85,11.56-6.42,12.84c0,0,11.56,10.28,1.28,17.98
		c0,0,8.99,5.14,6.42,11.56c-2.57,6.42,0,1.28,0,1.28s21.84,0,15.41,8.99c0,0,25.69,5.14,11.56,17.98c0,0,8.3,3.74,1.58,7.01
		c-6.72,3.27-127.46-4.44-127.46-4.44S135.75,135.36,135.76,135.34z"/>
	<path class="st7" d="M369.07,139.36v10.53c0,0.63,0.21,1.23,0.61,1.72c1.03,1.28,2.92,4.15,1.96,7.01c-1.28,3.85-2.57,12.84,0,16.7
		c2.57,3.85,7.71,12.84,7.71,12.84s1.28,2.56,1.28,2.57c0.34,0.69,0.67,1.63,0.61,2.41c-0.02,0.29-0.13,0.56-0.26,0.83
		c-0.28,0.61-0.65,1.19-0.29,1.87c0.17,0.33,0.45,0.59,0.73,0.82c2.56,2.13,6.01,2.78,9.25,2.27c1.87-0.3,3.68-0.94,5.38-1.79
		c10.28-5.14,12.84-3.85,12.84-3.85l5.14-17.98l-15.41-7.71c0,0,2.57-15.41,0-17.98c-2.57-2.57-11.26-1.37-11.56,7.71
		c-0.31,9.55-6.57-0.43-7.06-0.64v-10.28C379.92,146.2,376.06,148.71,369.07,139.36z"/>
	<path class="st13" d="M366,111c0,0,0.5,11.66,8.21,18.09c7.71,6.42,0,0,0,0s1.28,1.28-1.28,1.28c0,0-2.57,7.71,6.42,11.56
		l1.28,1.28L384,161l-4-3l-0.66-10.93c0,0-10.28-2.57-10.28-8.99c0-6.42,0-7.71,0-7.71S360.86,126.41,366,111z"/>
	<path class="st7" d="M316.41,193.31c0,0,1.28,2.57,5.14,0c2.09-1.39,3.8-2.03,4.93-2.32c0.95-0.25,1.95,0.06,2.59,0.8
		c0.04,0.05,0.08,0.1,0.13,0.15c1.86,2.26-1.03,5.35-3.47,3.73l-0.3-0.2c-0.9-0.6-1.99-0.63-2.85-0.1
		c-1.39,0.86-2.64,2.24,1.53,3.08c4.55,0.91,7.16,3.75,8.3,5.33c0.49,0.68,1.27,1.09,2.11,1.09h13.08c0.59,0,1.17,0.21,1.63,0.58
		l2.71,2.21c1.08,0.88,2.67,0.74,3.58-0.31l1.25-1.45c1.05-1.21,0.75-3.08-0.62-3.91L346.15,196c-0.13-0.08-0.26-0.17-0.37-0.27
		l-9.36-8.19c-0.48-0.42-1.1-0.65-1.75-0.64C330.42,187,314.17,187.72,316.41,193.31"/>
	<path d="M410.81,197.16c0,0-21.84-1.28-28.26,19.27L339,234l-18.1,53.08l-10.28,16.7c-3.17,2.33,8.67,30.39,8.99,33.4
		c0.62,5.71,36.61-84.13,36.61-84.13s10.28-21.84,41.1-21.84s80.92,2.57,80.92,2.57v-32.11L410.81,197.16z"/>
	<path d="M357.51,199.73c0,0-7.71,6.42-6.42,11.56l15.41,11.56l14.13-6.42l1.28-6.42l-15.41-5.14l0.64,3.21L357.51,199.73z"/>
	<path d="M306.13,276.8v11.56l4.56,15.54l4.29-6.97l6.56-22.7C321.54,274.23,313.84,267.81,306.13,276.8z"/>
	<path class="st9" d="M357.8,199.98l-0.12-1.13c-0.07-0.66,0.67-1.08,1.21-0.7l7.49,5.35c0.08,0.06,0.17,0.1,0.27,0.12l15.89,3.67
		c0.37,0.08,0.73-0.1,0.88-0.45c1.05-2.53,6.29-12.28,25.62-14.72c0.49-0.06,0.91,0.35,0.86,0.84l-0.48,4.8
		c-0.04,0.38-0.35,0.68-0.73,0.69c-3.53,0.09-20.19,1.42-26.03,18.32c-0.07,0.2-0.22,0.36-0.41,0.45l-42.63,18.9
		c-0.19,0.08-0.34,0.24-0.41,0.44l-18.79,51.35c-0.01,0.04-0.03,0.08-0.05,0.11l-1.91,3.4c-0.45,0.79-1.66,0.28-1.4-0.59l5.12-17.23
		l12.73-39.47c0.07-0.22,0.24-0.4,0.46-0.48l44.21-16.84c0.22-0.08,0.39-0.27,0.46-0.5l1.66-5.58c0.12-0.4-0.1-0.81-0.49-0.94
		l-13.27-4.42c-0.53-0.18-1.06,0.25-1,0.8v0c0.07,0.69-0.74,1.11-1.26,0.66l-7.62-6.6"/>
	<path class="st14" d="M307.41,271.66l1.24-14.88c0.03-0.38,0.15-0.74,0.35-1.06c0.85-1.31,3.53-4.62,8.68-4.62
		c0,0,3.85,0-3.85,7.71c-7.71,7.71,0,0,0,0l3.84,8.64c0.64,1.45-0.31,3.1-1.88,3.27L307.41,271.66"/>
	<path class="st0" d="M221.35,229.28c0,0,16.7,3.85,23.12,38.53s0,0,0,0s2.57,7.71,3.85-3.85l5.14,11.56c0,0,2.3,0.57,4.72,1.86
		c2.7,1.43,5.56,3.75,5.56,7.13l5.14,3.85c0,0-3.85,19.27-23.12,8.99l-30.83-60.37L221.35,229.28"/>
	<path class="st9" d="M304.03,275.99c0.22,0.57,0.86,0.96,1.48,0.83c0.66-0.13,1.21-0.56,1.75-0.95c1.94-1.41,4.08-2.64,6.44-3.09
		c2.03-0.39,4.17-0.18,6.08,0.6c0.47,0.19,0.94,0.42,1.44,0.46c0.51,0.04,1.07-0.15,1.3-0.61c0.3-0.6-0.12-1.32-0.61-1.77
		c-1.44-1.32-3.51-1.73-5.39-1.89c-2.39-0.2-4.85,0.04-7.1,0.87c-2.04,0.75-4.31,2.11-5.24,4.17c-0.14,0.31-0.24,0.64-0.24,0.97
		C303.95,275.72,303.98,275.86,304.03,275.99z"/>
	<polyline class="st0" points="247.04,263.96 250.9,265.24 256.03,278.09 249.61,275.52 247.04,263.96 	"/>
	<path class="st15" d="M269.67,320.78c0.78-1.97,1.69-3.79,2.22-5.06c0.08-1.47,1.45-3.54,2.01-4.91c0.72-1.76,1.45-3.53,2.17-5.29
		c1.31-3.19,1.78-7.03,4.09-9.72c2.84-3.31,8.83-2.96,12.78-2.66c3.7,0.28,6.51,1.85,8.31,5.23c1.36,2.56,1.85,5.48,2.21,8.35
		c0.58,4.63,1.57,9.19,2.57,13.75c0.55,2.54,1.86,4.92,2.22,7.5c1.03,7.24-9.09,4.51-13.06,4.38c-4.48-0.15-8.95-0.3-13.43-0.45
		c-2.3-0.08-4.6-0.22-6.9-0.23c-1.67-0.01-3.6,0.28-5.02-0.86C267.2,328.57,268.22,324.41,269.67,320.78z"/>
	<path class="st0" d="M478,232c0,0,79.89-2.72,83.74,38.38s20.55,91.2,20.55,91.2H316.41l3.85-25.69l48.81-95.05L478,232z"/>
	<path class="st0" d="M105.75,229.28c3.25,0.72-79.76-1.15-83.49,39.82c-3.75,41.11-20.55,91.2-20.55,91.2h265.89l-3.85-25.69
		l-48.81-95.05C214.93,239.55,102.5,228.55,105.75,229.28z"/>
	<path class="st0" d="M128,134l-7.55-1.71c-4.82,1.48-64.71,5.81-59.66,37.9c5.62,35.73-19.27,56.52,17.98,55.23
		c27.34-0.94,64.36-2.58,82.13-3.38c5.55-0.25,9.56-5.36,8.5-10.81c-4.64-23.77-17.94-80.05-39.25-77.01L128,134z"/>
	<path class="st16" d="M108.32,134.22c0,0,46.24-15.41,57.8,29.54c11.56,44.96,1.28,55.23,1.28,55.23
		C167.93,222.56,167.95,124.94,108.32,134.22z"/>
	<path class="st0" d="M176.4,116.24"/>
	<path class="st7" d="M268.88,288.36c6.98-15.81,14.05-29.62,22.07-44.95c0.56-1.08,1.07-2.28,0.89-3.48
		c-0.13-0.86-0.63-1.64-0.69-2.5c-0.06-0.95,0.4-1.97-0.05-2.82c-0.32-0.6-1.02-0.92-1.35-1.51c-0.5-0.89,0-1.98,0.24-2.97
		c0.24-0.99-0.12-2.41-1.15-2.39c-0.23,0-0.46,0.09-0.69,0.08c-0.8-0.05-1.05-1.14-0.85-1.91c0.2-0.77,0.62-1.58,0.33-2.32
		c-0.32-0.82-1.4-1.1-2.24-0.84s-1.48,0.93-2.08,1.56c-4.48,4.7-9.21,9.97-9.63,16.44c-0.2,3.13,0.65,6.23,1.21,9.32
		c0.19,1.03,0.34,2.09,0.12,3.1c-0.29,1.34-1.33,2.36-2.07,3.51c-1.16,1.81-2.39,3.58-3.64,5.33c-1.39,1.94-2.82,3.85-4.34,5.7
		c-1.12,1.37-2.29,2.81-3.69,3.91c-0.6,0.47-1.38,0.55-1.66,1.35c-0.2,0.57,0.01,1.11,0.29,1.61c3.09,5.45,4.6,7.04,7.69,12.49"/>
	<path class="st12" d="M225.07,224.37c0.07-0.12,0.23-0.16,0.35-0.07c2.51,1.95,26.77,21.12,26.77,34.52c0,2.5,0.22,5.08,1.04,7.46
		c0.5,1.45,1.26,2.85,2.39,3.91c0.6,0.57,1.31,1.03,2.07,1.34c0.38,0.16,0.78,0.28,1.19,0.35c0.29,0.05,0.9-0.03,1.13,0.15
		c0.06,0.05,0.1,0.12,0.14,0.2c0.17,0.32,0.33,0.64,0.51,0.96c0.25,0.46,0.51,0.92,0.76,1.38c0.51,0.92,1.02,1.83,1.53,2.75
		c1.04,1.88,2.08,3.76,3.11,5.63c0.83,1.5,1.66,3,2.49,4.5c0.22,0.39,0.43,0.78,0.65,1.17c0.13,0.22-0.13,0.47-0.35,0.32l-6.32-4.39
		c-0.04-0.03-0.07-0.06-0.08-0.1c-0.28-0.7-3-7.33-8.32-8.75c-0.06-0.02-0.12-0.06-0.15-0.12l-4.9-10.04
		c-0.1-0.21-0.42-0.17-0.46,0.07c-0.42,2.81-2.12,11.53-5.42-1.65c-3.85-15.41-16.7-35.97-21.84-33.4c-5.14,2.57,0,0,0,0
		L225.07,224.37z"/>
	<path class="st12" d="M219,231"/>
	<path class="st16" d="M262.93,332.64c-2.72-2.72-4.22-9.93-5.74-13.52c-2.13-5.01-4.25-10.02-6.38-15.02
		c-6.25-14.72-12.52-29.44-18.57-44.23c-3.57-8.73-8.15-17.5-15.39-23.76c-7.92-6.86-18.58-9.33-28.85-9.95
		c-8.95-0.54-17.92,0.33-26.85,1.03c-14.03,1.09-28.09,1.76-42.15,1.99c-10.19,0.17-20.4,0.12-30.53,1.23
		c-4.84,0.53-9.65,1.32-14.4,2.38c4.09,1.34,8.4,1.82,12.69,2.21c28.71,2.63,57.56,1.42,86.32,2.42c0.81,0.03,1.63,0.06,2.44,0.09
		c5.81,0.24,11.94,0.2,17.52,1.87c5.42,1.63,10.6,4.04,15.3,7.2c9.41,6.32,15.14,16.78,19.95,26.8
		c6.94,14.44,14.14,28.57,21.57,42.74c2.01,3.83,4.08,7.64,6.03,11.49c0.37,0.73,2.74,4.69,4.37,7.76c0.8,1.5,2.97,1.03,3.16-0.62
		c0.01-0.04,0.01-0.09,0.01-0.13C263.47,333.93,263.2,333.27,262.93,332.64z"/>
	<polyline class="st16" points="324.11,329.71 323.92,328.75 318.97,337.17 319,341 325.4,330.75 	"/>
	<path class="st16" d="M475.89,231.89c-1.41-0.09-2.93,0.08-4.18,0.07c-2.57-0.03-5.13-0.09-7.7-0.17
		c-4.84-0.14-9.85-0.35-14.58-0.55c-12.85-0.53-25.66-1.35-38.49-2.26c-12.12-0.85-24.65-0.78-35.87,4.49
		c-6.26,2.94-11.88,7.37-15.81,13.06c-3.4,4.92-5.48,10.56-7.56,16.12c-4.67,12.42-10.35,24.56-15.51,36.79
		c-4.96,11.77-9.93,23.53-14.9,35.29c-0.26,0.61-0.51,1.22-0.62,1.87c-0.03,0.2-0.05,0.39-0.05,0.59c-0.02,1.56-1.4,2.43-0.61,3.82
		c-0.51-0.64,7.51-9.64,8.11-10.83c1.95-3.86,4.02-7.66,6.03-11.49c4.21-8.02,8.37-16.06,12.49-24.13
		c3.07-6.02,6.12-12.05,9.15-18.09c2.66-5.32,4.76-10.94,8.18-15.86c3.14-4.52,7.15-8.4,11.71-11.46c4.7-3.16,9.88-5.57,15.3-7.2
		c5.57-1.67,11.7-1.63,17.52-1.87c0.81-0.03,1.63-0.07,2.44-0.09c26.9-0.94,75.16-4.58,102.07-4.97
		C509.03,232.02,476.37,231.89,475.89,231.89z"/>
	
		<rect x="305.92" y="219.96" transform="matrix(0.9664 -0.2571 0.2571 0.9664 -45.957 89.7909)" class="st17" width="28.83" height="1.31"/>
	
		<rect x="308.27" y="225.16" transform="matrix(0.9664 -0.2571 0.2571 0.9664 -47.2145 90.569)" class="st17" width="28.83" height="1.31"/>
	
		<rect x="310.77" y="231.63" transform="matrix(0.9664 -0.2571 0.2571 0.9664 -48.8385 91.4113)" class="st17" width="28.65" height="1.63"/>
	<polygon points="187.96,202.3 193.09,204.87 190.53,208.72 185.39,206.16 	"/>
	<polygon class="st0" points="260.98,337.39 322.19,341.67 317.69,361.58 259.49,360.29 	"/>
	<path class="st10" d="M261.37,328.14l-3.23,7.21c-0.4,0.88,0.21,1.89,1.18,1.95l4.47,0.29c0.89,0.06,1.6-0.73,1.46-1.61l-1.24-7.5
		c-0.14-0.84-0.98-1.35-1.79-1.1l0,0C261.84,327.51,261.53,327.78,261.37,328.14z"/>
	<path class="st10" d="M319.62,336.5l1.2,2.8c0.46,1.07-0.38,2.25-1.54,2.17l-2.67-0.19c-1.14-0.08-1.81-1.32-1.25-2.32l1.47-2.61
		C317.46,335.22,319.11,335.31,319.62,336.5z"/>
	<polygon class="st0" points="2,360 -23,406 666,406 560,354 	"/>
	<polygon class="st0" points="560,329 606,398 534,383 	"/>
	<linearGradient id="SVGID_2_" gradientUnits="userSpaceOnUse" x1="453" y1="55" x2="453" y2="55">
		<stop  offset="0.0638" style="stop-color:#41395B"/>
		<stop  offset="0.3524" style="stop-color:#3C3654"/>
		<stop  offset="0.7704" style="stop-color:#2F2E41"/>
		<stop  offset="0.955" style="stop-color:#282A36"/>
	</linearGradient>
	<path class="st18" d="M453,55"/>
	<path class="st19" d="M94.66,235.45c1.21,0.15,2.41,0.29,3.62,0.44c1.36,0.16,2.73,0.33,4.1,0.31"/>
	<path class="st19" d="M95.89,235.36c1.93,0.1,3.84,0.5,5.64,1.2"/>
	<path class="st0" d="M297.38,316c-5-8-3.69-44-3.69-44h-4h-0.31h-3.69c0,0,0,36-5,44c-4.73,7.57-3.51,11.11,7.38,11.68l0,0.07
		c0.33-0.01,0.65-0.02,0.97-0.03c0.32,0.01,0.64,0.02,0.97,0.03l0-0.07C300.89,327.11,302.11,323.57,297.38,316z"/>
	<path class="st19" d="M96.89,235.77c-0.04-0.02-0.06-0.07-0.05-0.11c3.17,0.25,6.3,0.94,9.48,0.86"/>
	<path class="st0" d="M452.41,134l7.55-1.71c4.82,1.48,64.71,5.81,59.66,37.9c-5.62,35.73,19.27,56.52-17.98,55.23
		c-27.34-0.94-64.36-2.58-82.13-3.38c-5.55-0.25-9.56-5.36-8.5-10.81c4.64-23.77,17.94-80.05,39.25-77.01L452.41,134z"/>
	<path class="st16" d="M472.09,134.22c0,0-46.24-15.41-57.8,29.54C402.73,208.72,413,219,413,219
		C412.48,222.56,412.45,124.94,472.09,134.22z"/>
	<path class="st9" d="M304,276l1,2c0,0,8-9,16-4c0.28,0.19,0.55,0.41,0.85,0.56c0.21-0.24,0.35-0.69,0.49-1
		c0.15-0.35,0.26-0.74,0.16-1.1c-0.07-0.27-0.25-0.5-0.44-0.7c-0.89-0.93-2.06-1.15-3.29-1.34c-1.32-0.2-2.66-0.31-3.99-0.27
		c-2.62,0.06-5.27,0.68-7.46,2.17C305.93,273.27,304.82,274.53,304,276z"/>
	<polygon points="315,292 320,298 310.61,309.4 306,289 306.13,285.95 	"/>
	<path class="st16" d="M290.92,274.23c0,0-3.13,0-3.13,0c-1.82,0-3.56-0.94-4.57-2.45c-0.46-0.68-0.77-1.48-0.88-2.29
		c-0.11-0.86-0.12-2.59-0.12-2.59s0.09-0.89,0.18-1.33c0.09-0.4,0.37-0.69,0.61-1.01c0.34-0.44,0.71-0.86,1.11-1.25
		c0.77-0.75,1.64-1.41,2.62-1.86c0.4-0.19,0.82-0.34,1.25-0.43c0,0,2,0,2,0c0.91,0.33,1.8,0.76,2.65,1.23
		c0.8,0.45,1.6,0.93,2.3,1.53c0.66,0.56,1.21,1.23,1.37,2.1c0.2,1.14,0.2,2.29,0.08,3.45c-0.09,0.89-0.41,1.75-0.91,2.5
		C294.47,273.3,292.75,274.22,290.92,274.23z"/>
	<path class="st9" d="M322,273c-0.18,0-1.05,3.6-1.15,3.93c-0.59,2-1.17,4-1.77,6c-1,3.32-2.1,6.61-2.9,9.98
		c-0.03,0.13-0.06,0.27-0.09,0.4c-0.05,0.2-0.09,0.4-0.05,0.6c0.19,0.95,0.83-0.24,1.03-0.52c0.54-0.78,1.17-1.5,1.65-2.32
		c0.76-1.32,1.13-2.86,1.67-4.28c0.43-1.12,0.82-2.26,1.23-3.39c0.82-2.26,1.63-4.51,2.45-6.77c0.05-0.14,0.94-2.63,0.95-2.62
		C325,274,322,273,322,273z"/>
	<polyline class="st0" points="578.43,349.12 598,373 -36,373 9,356 	"/>
	<path class="st0" d="M303,283"/>
	<path class="st20" d="M282.29,267.17L282.29,267.17c0-3.89,3.18-7.06,7.06-7.06l0,0c3.89,0,7.06,3.18,7.06,7.06l0,0
		C297.11,261.68,282.99,261.68,282.29,267.17z"/>
	<polyline class="st21" points="336.5,215.5 340.25,217.75 341,212.5 	"/>
	<polyline class="st21" points="340.5,227.29 343.42,229 344,225 	"/>
	<polyline class="st21" points="338.5,221.07 341.71,223 342.36,218.5 	"/>
	<path class="st22" d="M233.5,106.5"/>
	<g>
		<g>
			<path class="st23" d="M334.82,81.32h-66.46h-5.47c-3.53,0,4.5-3.53,4.5-7.06v0c0-3.53,2.89-6.42,6.42-6.42h52.66
				c3.53,0,6.42,2.89,6.42,6.42v0C332.89,77.79,338.35,81.32,334.82,81.32z"/>
		</g>
		<polygon class="st24" points="272.04,81 279.04,68 285.04,68 279.04,81 		"/>
		<polygon class="st24" points="280.04,81 287.04,68 293.04,68 287.04,81 		"/>
	</g>
	<path class="st25" d="M334.77,81.38l-66.46-0.11l-5.47-0.01c-3.53-0.01,4.5-3.52,4.51-7.06v0c0.01-3.53,2.9-6.42,6.43-6.41
		l52.66,0.09c3.53,0.01,6.42,2.9,6.41,6.43v0C332.85,77.85,338.3,81.39,334.77,81.38z"/>
	<polyline class="st12" points="219,231 219.38,231.64 221.66,230.44 223,229 222,229 222,228 219,231 	"/>
	<path class="st13" d="M365,116c0,0-1-4,2-6c-0.44,0.65-1.44,2.64-1,6C366.52,119.97,365,116,365,116"/>
</g>
</svg>
